<?xml version="1.0" standalone="no"?>
<!DOCTYPE svg PUBLIC "-//W3C//DTD SVG 20010904//EN"
 "http://www.w3.org/TR/2001/REC-SVG-20010904/DTD/svg10.dtd">
<svg version="1.0" xmlns="http://www.w3.org/2000/svg"
 width="1024.000000pt" height="1024.000000pt" viewBox="0 0 1024.000000 1024.000000"
 preserveAspectRatio="xMidYMid meet">
<metadata>
Created by potrace 1.14, written by Peter Selinger 2001-2017
</metadata>
<g transform="translate(0.000000,1024.000000) scale(0.100000,-0.100000)"
fill="#000000" stroke="none">
<path d="M9558 9595 c-4 -4 -106 -17 -153 -20 -22 -2 -40 -4 -40 -5 0 -1 -16
-4 -105 -15 -25 -3 -76 -10 -115 -15 -38 -6 -86 -12 -105 -14 -19 -3 -35 -5
-35 -6 0 -1 -20 -3 -45 -6 -25 -2 -59 -6 -76 -9 -17 -2 -57 -7 -89 -11 -32 -3
-68 -8 -79 -10 -12 -2 -41 -6 -66 -9 -25 -3 -56 -8 -70 -10 -14 -3 -45 -7 -70
-10 -25 -3 -63 -8 -85 -10 -22 -3 -54 -8 -71 -10 -55 -7 -118 -15 -159 -20
-22 -3 -55 -8 -72 -10 -18 -2 -48 -6 -65 -9 -41 -7 -87 -13 -162 -22 -58 -6
-91 -11 -91 -14 0 0 -23 -3 -51 -5 -49 -3 -105 -11 -165 -20 -14 -3 -43 -7
-64 -10 -20 -2 -54 -7 -74 -9 -67 -10 -136 -18 -167 -21 -17 -1 -35 -4 -40 -7
-5 -3 -17 -4 -26 -3 -10 2 -18 0 -18 -3 0 -4 -17 -7 -38 -8 -39 0 -143 -12
-177 -20 -11 -2 -42 -7 -70 -10 -57 -6 -81 -9 -150 -18 -27 -4 -68 -9 -90 -12
-22 -2 -49 -6 -60 -8 -12 -2 -48 -7 -80 -11 -33 -4 -68 -9 -79 -11 -35 -6
-131 -17 -158 -18 -16 -1 -28 -3 -28 -6 0 -3 -15 -5 -32 -4 -18 0 -37 -2 -42
-5 -6 -2 -19 -5 -30 -6 -12 -1 -46 -5 -76 -9 -30 -4 -73 -9 -95 -12 -47 -5
-103 -13 -130 -18 -11 -2 -49 -7 -85 -11 -36 -4 -72 -9 -80 -10 -8 -2 -44 -6
-80 -10 -36 -4 -74 -9 -84 -11 -11 -2 -56 -8 -100 -14 -45 -6 -92 -13 -106
-15 -14 -2 -50 -6 -81 -10 -31 -3 -65 -7 -75 -9 -11 -2 -44 -7 -74 -11 -30 -3
-66 -8 -80 -10 -14 -2 -50 -7 -80 -10 -30 -3 -68 -8 -85 -10 -16 -3 -48 -7
-70 -11 -22 -3 -55 -8 -72 -10 -18 -2 -48 -6 -65 -8 -141 -18 -166 -22 -178
-26 -3 -1 -8 -2 -12 -1 -4 0 -36 -6 -70 -14 -64 -14 -101 -22 -150 -31 -14 -3
-75 -18 -135 -35 -59 -16 -115 -31 -123 -33 -15 -4 -212 -72 -288 -100 -23 -8
-59 -23 -80 -32 -20 -9 -46 -20 -57 -24 -71 -30 -301 -145 -307 -154 -4 -6 -8
-8 -8 -4 0 4 -29 -10 -65 -32 -36 -22 -67 -40 -70 -40 -3 0 -130 -79 -179
-112 -32 -22 -151 -107 -161 -115 -5 -5 -28 -22 -50 -38 -22 -17 -45 -34 -51
-40 -6 -5 -30 -26 -54 -45 -90 -73 -129 -109 -261 -240 -133 -133 -195 -199
-254 -274 -16 -21 -37 -46 -45 -56 -8 -10 -22 -27 -31 -37 -37 -45 -189 -264
-189 -273 0 -6 -4 -10 -9 -10 -5 0 -13 -10 -17 -22 -4 -13 -10 -25 -13 -28
-12 -8 -81 -127 -81 -138 0 -6 -3 -12 -7 -14 -15 -6 -143 -260 -143 -282 0 -8
-4 -16 -8 -18 -24 -10 -175 -434 -218 -610 -17 -73 -35 -151 -41 -178 -9 -43
-11 -55 -13 -55 -1 0 -3 -13 -5 -30 -3 -16 -7 -43 -9 -60 -3 -16 -7 -47 -10
-67 -13 -84 -19 -139 -32 -278 -9 -92 -8 -477 1 -580 9 -107 12 -140 18 -180
3 -19 9 -57 12 -85 4 -27 18 -106 32 -175 14 -69 27 -132 28 -140 1 -8 5 -22
8 -30 7 -20 37 -129 42 -155 7 -33 66 -208 81 -242 8 -17 14 -35 14 -41 0 -5
11 -34 23 -63 29 -67 40 -93 41 -99 3 -12 62 -133 112 -230 30 -58 60 -117 66
-132 7 -16 16 -28 20 -28 4 0 8 -4 8 -9 0 -40 296 -462 398 -567 13 -13 21
-24 18 -24 -4 0 83 -95 171 -185 29 -30 53 -57 53 -60 0 -3 -387 -392 -860
-865 -473 -472 -856 -861 -852 -863 4 -3 36 -1 72 5 36 5 83 11 104 13 38 4
95 12 146 20 14 2 52 7 85 11 33 3 69 8 80 11 11 2 44 6 73 8 29 2 60 6 70 9
9 2 40 7 67 11 28 3 64 8 80 10 17 3 52 7 79 10 27 3 59 7 70 10 12 2 46 7 76
10 30 3 66 7 80 10 83 13 110 17 150 20 25 2 59 6 75 9 35 6 104 16 155 21 19
2 51 6 70 9 34 5 83 12 165 22 22 3 54 7 70 9 71 10 94 13 155 20 36 4 67 8
70 10 3 2 32 6 64 9 57 6 104 13 156 21 14 3 54 7 90 11 36 3 74 8 85 10 11 3
40 7 65 10 25 2 56 6 70 9 14 2 48 7 75 10 28 3 66 9 85 11 62 9 94 14 140 19
25 3 61 8 80 10 19 3 55 7 80 10 25 3 72 10 105 15 53 8 117 17 195 25 14 2
25 4 25 5 0 0 18 3 40 6 22 2 54 6 70 8 17 2 56 7 88 11 32 3 68 8 80 11 12 2
45 7 74 10 59 5 92 10 146 19 21 4 57 8 80 10 23 1 49 5 57 8 8 3 22 5 30 5 8
0 33 2 55 6 22 3 63 8 90 11 28 3 57 8 65 10 8 2 40 7 70 10 30 3 69 8 85 10
17 2 53 7 80 10 28 3 61 7 75 10 42 7 105 15 146 20 21 2 73 9 114 15 41 6 93
13 115 16 84 10 138 18 280 41 25 4 79 15 185 38 8 1 33 8 55 13 22 6 51 13
65 16 36 7 262 75 285 86 11 5 53 20 93 34 40 14 86 33 102 41 17 9 30 14 30
11 0 -2 26 8 58 23 31 15 83 38 115 51 31 13 57 27 57 32 0 4 6 8 13 8 40 0
607 347 607 372 0 4 5 8 11 8 6 0 16 6 23 12 7 7 25 22 40 33 15 11 37 28 49
38 12 10 44 37 71 60 131 111 333 313 441 442 89 106 95 114 130 160 16 22 33
42 37 43 4 2 8 9 8 17 0 7 6 18 14 24 12 10 92 124 121 173 6 9 34 56 63 105
84 139 130 223 131 236 0 4 9 24 20 45 25 46 101 210 101 218 0 3 6 20 14 37
37 85 120 328 141 417 25 105 38 158 40 170 2 8 4 15 5 15 1 0 3 9 5 20 1 11
5 34 9 50 5 26 13 71 31 185 13 84 18 120 20 160 2 25 4 45 5 45 6 0 13 213
13 375 0 180 -6 299 -17 391 -3 20 -7 59 -10 85 -4 27 -11 76 -17 109 -6 33
-12 71 -14 85 -2 14 -4 25 -5 25 -1 0 -3 9 -4 20 -6 40 -36 171 -50 218 -9 26
-15 51 -16 55 0 12 -30 115 -39 137 -5 11 -21 58 -36 105 -15 47 -34 101 -42
120 -8 19 -20 46 -25 60 -6 14 -16 36 -23 50 -7 14 -14 28 -15 32 -7 42 -184
391 -216 429 -8 8 -14 19 -14 23 0 12 -181 280 -191 284 -5 2 -9 8 -9 13 0 21
-253 319 -369 436 l-45 44 867 864 c477 476 867 866 867 868 0 4 -28 5 -32 2z
m-4163 -1629 c17 -2 57 -7 90 -10 33 -4 71 -9 85 -12 14 -2 39 -7 55 -10 17
-2 37 -7 45 -9 8 -2 31 -7 50 -10 42 -7 253 -61 295 -76 17 -6 39 -15 50 -19
11 -4 49 -18 85 -31 136 -47 324 -139 480 -233 63 -38 117 -73 118 -78 2 -4 8
-8 13 -8 6 0 15 -5 22 -10 7 -6 49 -38 95 -71 45 -34 82 -65 82 -70 0 -5 6 -9
13 -9 6 0 35 -22 63 -48 28 -26 62 -56 75 -68 115 -101 318 -343 434 -518 80
-120 245 -434 245 -465 0 -9 6 -23 13 -29 6 -7 12 -16 13 -20 0 -4 3 -14 7
-22 3 -8 13 -37 22 -65 10 -27 20 -57 23 -65 8 -22 8 -22 16 -55 4 -16 12 -41
17 -55 11 -29 12 -33 39 -155 27 -121 36 -172 45 -245 2 -25 8 -70 12 -100 8
-67 8 -527 -1 -590 -3 -25 -8 -58 -11 -75 -2 -16 -7 -48 -10 -70 -3 -22 -8
-49 -10 -61 -3 -12 -7 -37 -10 -56 -3 -20 -17 -76 -30 -124 -13 -49 -21 -92
-18 -96 2 -5 -1 -8 -6 -8 -6 0 -10 -3 -9 -7 6 -27 -84 -267 -159 -423 -48 -99
-176 -325 -192 -340 -3 -3 -23 -31 -44 -62 -21 -31 -47 -67 -58 -80 -10 -13
-22 -28 -26 -33 -122 -165 -337 -376 -523 -515 -52 -40 -103 -78 -113 -86 -9
-8 -19 -14 -22 -14 -3 0 -27 -15 -53 -33 -101 -70 -392 -226 -392 -210 0 4 -4
3 -8 -3 -6 -9 -203 -91 -237 -99 -5 -1 -17 -5 -25 -8 -8 -4 -62 -20 -120 -36
-180 -50 -330 -81 -422 -85 -16 0 -28 -3 -28 -6 0 -14 -505 -20 -635 -8 -94
10 -243 33 -330 53 -39 9 -43 10 -85 19 -19 4 -66 17 -105 28 -38 11 -74 21
-80 23 -5 1 -18 5 -27 8 -10 4 -26 10 -35 14 -10 3 -24 7 -31 9 -69 14 -422
179 -532 249 -25 16 -47 27 -49 26 -2 -2 -7 1 -10 6 -3 5 -33 26 -66 48 -33
21 -62 41 -65 45 -3 3 -21 17 -40 30 -52 35 -188 147 -249 204 -82 78 -163
163 -244 256 -66 77 -198 256 -234 320 -10 18 -23 40 -28 49 -42 67 -120 212
-130 241 -1 3 -12 28 -25 55 -13 28 -25 52 -25 55 -1 3 -6 16 -12 30 -11 25
-19 46 -23 65 -1 6 -5 15 -10 20 -4 6 -15 35 -24 65 -10 30 -20 62 -23 70 -9
21 -9 21 -17 55 -4 17 -12 41 -17 55 -4 14 -11 36 -13 50 -3 14 -10 43 -15 65
-6 22 -13 56 -16 75 -3 19 -8 42 -10 50 -4 16 -10 53 -20 130 -3 25 -8 61 -10
80 -3 19 -7 95 -11 169 -3 74 -5 137 -6 140 0 3 0 8 1 11 1 3 4 59 6 125 3 66
7 137 10 158 3 20 7 52 9 70 7 57 17 121 26 161 5 22 7 44 4 48 -3 4 -1 8 4 8
5 0 9 6 9 13 3 58 111 417 134 442 5 5 9 15 9 22 0 7 13 40 29 73 16 33 26 60
23 60 -4 0 -2 4 3 8 6 4 23 34 39 67 29 60 134 246 145 255 3 3 22 30 42 60
45 69 180 243 228 293 64 68 218 221 252 251 127 110 430 326 458 326 5 0 11
4 13 8 4 10 227 123 312 158 34 14 75 32 91 39 58 25 262 89 318 100 10 3 27
7 37 10 10 3 27 8 37 10 10 2 52 10 93 19 41 9 98 19 125 22 28 3 57 8 65 10
8 3 53 8 100 11 47 3 86 6 88 8 5 5 431 -3 467 -9z"/>
</g>
</svg>
